PathFileType	4	(X/Y/Z)	Patient4_TMGait_0pt4_03_right_07.trc.trc
DataRate	CameraRate	NumFrames	NumMarkers	Units	OrigDataRate	OrigDataStartFrame	OrigNumFrames
76.923076923077	76.923076923077	5	33	mm	76.923076923077	124	       141
Frame#	Time	Sacral			L.Shoulder			Chest			R.Shoulder			Neck			R.ASIS			L.ASIS			R.Thigh.Superior			R.Thigh.Lateral			R.Thigh.Inferior			R.Patella			L.Thigh.Superior			L.Thigh.Lateral			L.Thigh.Inferior			L.Patella			L.Shank.Superior			L.Shank.Lateral			L.Shank.Inferior			R.Shank.Superior			R.Shank.Lateral			R.Shank.Inferior			R.Heel			R.Midfoot.Superior			R.Midfoot.Lateral			R.Toe			L.Heel			L.Midfoot.Lateral			L.Midfoot.Superior			L.Toe			L.Elbow			L.Wrist			R.Elbow			R.Wrist			
		X1	Y1	Z1	X2	Y2	Z2	X3	Y3	Z3	X4	Y4	Z4	X5	Y5	Z5	X6	Y6	Z6	X7	Y7	Z7	X8	Y8	Z8	X9	Y9	Z9	X10	Y10	Z10	X11	Y11	Z11	X12	Y12	Z12	X13	Y13	Z13	X14	Y14	Z14	X15	Y15	Z15	X16	Y16	Z16	X17	Y17	Z17	X18	Y18	Z18	X19	Y19	Z19	X20	Y20	Z20	X21	Y21	Z21	X22	Y22	Z22	X23	Y23	Z23	X24	Y24	Z24	X25	Y25	Z25	X26	Y26	Z26	X27	Y27	Z27	X28	Y28	Z28	X29	Y29	Z29	X30	Y30	Z30	X31	Y31	Z31	X32	Y32	Z32	X33	Y33	Z33	

124	9.709000000000	837.050973543576	996.061769113960	464.088522740812	1015.887610726567	1416.755187225235	260.181556116064	1108.713427539888	1360.652401707250	431.549541218714	1014.213079723699	1443.565506889063	595.777056323541	1006.910615494167	1490.577653254007	410.254181161637	1064.337644585413	941.211013067060	588.708857826476	1057.817770488724	960.690797270552	312.082427966907	1134.306041408885	755.887703088509	567.054159242344	1075.407909526005	635.969531498909	634.892743492486	1166.230834564896	595.495858957242	560.288037158040	1188.459074561745	509.329272546107	573.874952867698	1069.601594322831	733.922059862678	340.956143056974	958.893763835173	633.924277284292	274.480607734609	1023.308945446447	543.126958660649	337.790905577418	1009.859911566747	475.197027383621	346.615212850922	975.692232792915	407.234060515417	336.669348731208	872.191554867850	305.846118874795	282.129701991138	907.687788119033	187.962445313563	353.124873565118	1164.677865941687	419.013814533234	585.317365639447	1098.773434539186	313.382765789550	650.935075052100	1155.747928942773	219.297363515751	599.014691959037	1041.859326268384	45.430909710813	579.374158655434	1211.774029742617	104.403104991154	608.932235659629	1128.454399131229	38.773153181345	649.925726577465	1333.893410144960	57.539777189223	631.239564194713	765.979463537213	38.839625757965	391.714594288012	841.417721817573	35.385236978978	312.535305059783	924.759321221462	95.702173211326	342.258465659507	1053.497850542835	41.828289075408	315.717968972099	1050.268115618906	1067.203911991486	143.012846867878	1220.948999936835	866.829288613787	137.747903320861	890.033999679493	1135.192298033235	737.477797781280	908.025921698376	877.037726592903	779.816679474701	
125	9.722000000000	838.933873577546	994.820036285013	466.858332411483	1015.690686712787	1416.336010472083	264.107695651621	1109.161312237937	1360.413858516091	435.220397447242	1014.511849954689	1442.530223017546	599.825311476541	1006.854895765409	1489.978145102013	414.391673853167	1066.330189013985	940.160657504266	591.091807601825	1059.346673359542	960.084527554982	314.811738956751	1135.260632291439	753.345516873631	568.699566755921	1074.335459449922	633.950540706810	634.913943076003	1164.921224627401	593.274247945722	560.227395506900	1185.725782022480	506.411106181241	572.915595724764	1070.507726487525	732.780659553568	342.276649126707	958.517714926068	633.492975175428	276.357837699541	1022.647413260182	542.084878913881	339.157806022803	1008.970005069342	473.764587197046	347.809497542191	973.780527275797	406.305737159875	337.843071836122	868.971376077072	306.210067590263	283.268792626499	903.351054714073	187.542770454509	353.592917633700	1161.251238145608	415.918825569670	584.343236239956	1094.280913502874	310.680393208398	649.735172579078	1149.790760018721	216.139421773882	597.051521032859	1033.336282072975	44.114326107718	577.526773358423	1203.660973842993	101.738487222020	606.315606725440	1119.822514691838	37.529238321161	648.298210663937	1325.721667342991	53.727671957294	629.280706977510	760.709297582373	38.987573091978	391.773496125481	836.182089361822	35.408733326080	312.660412728423	919.612105712811	95.685212934273	342.387948532672	1048.326433587313	41.612432034770	315.670616685914	1047.382112414491	1065.788975072229	148.071797884387	1217.039308288973	864.466091206051	142.451185718616	893.274651880259	1132.281748740122	740.621708527986	914.901675922922	873.840534697129	780.496541277420	
126	9.735000000000	840.606297236983	993.845350300255	469.560254410093	1015.683012016675	1416.105289411996	268.144125169109	1109.765038439354	1360.252204316783	438.985457511654	1015.046492303139	1441.612403003388	603.983442998844	1007.028914439482	1489.530571264571	418.650544235939	1068.167280061021	939.323760523752	593.486415676586	1060.643411030526	959.509435610367	317.577485455235	1136.082990899354	751.226190100931	570.112788019579	1073.714639325909	632.552885233555	635.280738119620	1163.660701222297	591.512213398831	560.144232980650	1183.250326901173	504.067205091678	572.210042106155	1071.637673829866	731.824541336782	343.806778805430	958.699594349906	632.967687368289	278.393153929699	1022.809960462470	541.062345224292	340.720165697985	1009.025884075988	472.169008555078	349.065103027900	972.544227361118	405.299196699166	339.111422453262	866.214177364059	306.734028932886	284.549678009808	899.276838732953	187.205045704038	354.108182196133	1158.266870532969	413.473789871897	583.704587993041	1090.703054315847	308.603319770011	649.250774242943	1144.671514812357	213.678538030281	595.624308433536	1025.981273861496	43.154560633470	576.433113609196	1196.583066470332	99.871829490333	604.470959447301	1112.440225755413	36.791881898411	647.322491405520	1318.669384824966	51.088074194293	627.830462164497	755.443296368640	39.424053607845	391.820067628828	830.967073303781	35.541891656242	312.799554170609	914.580517146482	95.710157586723	342.486540959020	1043.187280003938	41.336609764218	315.600362188808	1044.223341561872	1064.523027314257	153.307205457555	1212.521807398982	861.992815595213	147.163342159133	897.169225402095	1129.328803124146	743.928553456086	922.682675267385	870.692821125691	781.362749743292	
127	9.748000000000	842.005643768952	993.190116090091	472.193297085140	1015.883887533464	1416.110240338879	272.251311942468	1110.503593154818	1360.183005927833	442.811871427308	1015.795713107289	1440.848701950084	608.193205256970	1007.437819986273	1489.266206192401	422.986659937308	1069.795812039914	938.745600911749	595.914398554624	1061.681984818752	959.030732233665	320.360009334476	1136.800062292015	749.648939405205	571.329964911476	1073.616424005378	631.784510440230	636.036344657468	1162.553606915728	590.251505395880	560.132830585780	1181.102716580661	502.321474480009	571.869852213425	1072.977895214823	731.110324265972	345.591397559087	959.530757447598	632.354710832638	280.572872234500	1023.940967390505	540.093826082568	342.459666268578	1010.186215102348	470.430255656943	350.320343720985	972.115863661851	404.239111513093	340.423004333433	864.026490049142	307.488080752829	285.949211461975	895.547246074198	187.020729149979	354.630299128596	1155.746387195574	411.675456819793	583.439307267814	1087.969864660932	307.157213182480	649.443132872846	1140.314446152659	211.903236971830	594.728801728708	1019.675498529598	42.546804693440	575.974843352618	1190.461627491662	98.705544924139	603.391414713202	1106.162695785447	36.464684146349	646.903418011481	1312.607659409058	49.461052873387	626.894478144629	750.214429781108	40.303425264770	391.837481811123	825.793229651876	35.857051446246	312.937278742874	909.722333813195	95.797349642786	342.517756790635	1038.080784498224	41.001830331013	315.507605587861	1040.820502365811	1063.490601678263	158.674349412106	1207.389837973670	859.478772200759	151.863511017730	901.661894890979	1126.424479099788	747.362852804893	931.351904859800	867.723732364832	782.423203130861	
128	9.761000000000	843.101243897762	992.867304738841	474.792299564181	1016.282834133691	1416.372551521720	276.393781612019	1111.343570810015	1360.209182823129	446.665721770397	1016.729507502937	1440.256994027189	612.406326497523	1008.062290478764	1489.196608232117	427.359704694735	1071.194081641092	938.447102100494	598.401363859649	1062.450039549283	958.697874910203	323.146876377790	1137.438300455171	748.649007976646	572.429459209021	1073.991405146975	631.566836899876	637.179586810797	1161.643354251473	589.450508861679	560.295627468286	1179.266473761967	501.115796371054	571.951850568834	1074.530061696557	730.684659059132	347.638090259030	961.090687039487	631.670310066119	282.868065347157	1026.169262191096	539.219351489936	344.327817997671	1012.587613204649	468.587679460280	351.493911605862	972.624069796190	403.162008537671	341.708278088741	862.521272837880	308.551300009202	287.429538990265	892.259566206973	187.074713756199	355.103219871142	1153.618538191682	410.447854626533	583.539173165062	1085.885494136463	306.271856015394	650.186048775456	1136.550436180168	210.729246608980	594.303909663456	1014.200174605031	42.246355791556	575.996319241510	1185.113417266654	98.096736348342	602.973459802196	1100.746714128050	36.432605660884	646.910883900678	1307.317403194805	48.618486511876	626.419722192705	745.077903499275	41.806841003555	391.806006011548	820.692463985087	36.448303337104	313.054200617148	905.108118426740	95.974009067321	342.438843216321	1033.004196371196	40.615551338331	315.395125292540	1037.203358936102	1062.757422132648	164.117783886258	1201.646647493640	856.983974687357	156.532496554385	906.671307597488	1123.649218575680	750.900526028272	940.904973799710	865.060674637949	783.678020588171	
